<?xml version="1.0" encoding="utf-8"?>
<!-- Generator: Adobe Illustrator 22.1.0, SVG Export Plug-In . SVG Version: 6.00 Build 0)  -->
<svg version="1.1" id="a594ac37-6d44-4297-8862-1cbd9c01c0b7"
	 xmlns="http://www.w3.org/2000/svg" xmlns:xlink="http://www.w3.org/1999/xlink" x="0px" y="0px" viewBox="0 0 571.1 2960.4"
	 style="enable-background:new 0 0 571.1 2960.4;" xml:space="preserve">
<style type="text/css">
	.st0{fill:#F2F2F2;}
	.st1{fill:#FAEAE0;}
	.st2{opacity:0.2;fill:#FF6347;}
</style>
<path class="st0" d="M2171.8,2538.8c-242.4-18.4-531.5-206.3-516.8-399.7s294.7-373.4,537.1-355c242.4,18.4,381.9,379.9,367.2,573.3
	C2544.6,2550.8,2414.2,2557.2,2171.8,2538.8z"/>
<title>code review</title>
<path class="st1" d="M-269.1,2102.9c-181.7-14.9-398.4-166.4-387.3-322.4s220.9-301.2,402.5-286.3
	c181.7,14.9,286.3,306.4,275.2,462.4S-87.4,2117.8-269.1,2102.9z"/>
<path class="st1" d="M669.5,2937.4c-58.8-2.5-128.8-27.7-125.3-53.6c3.6-25.9,71.4-50.1,130.2-47.6s92.6,50.9,89,76.9
	C759.9,2939.1,728.3,2939.9,669.5,2937.4z"/>
<path class="st1" d="M946.8,538.5C751.3,523.6,518.1,372.1,530,216.1S767.7-85,963.2-70.1s308.1,306.4,296.2,462.4
	S1142.3,553.4,946.8,538.5z"/>
<polygon class="st2" points="64.2,1135 41.1,1157.9 64.2,1180.7 69.4,1175.5 51.9,1158 69.5,1140.4 "/>
<polygon class="st2" points="98.3,1135 121.4,1157.9 98.3,1180.7 93.1,1175.5 110.6,1158 92.9,1140.4 "/>
<polygon class="st2" points="453.3,1615.2 430.2,1638 453.3,1660.8 458.5,1655.6 441.1,1638.1 458.7,1620.5 "/>
<polygon class="st2" points="487.4,1615.2 510.5,1638 487.4,1660.8 482.2,1655.6 499.7,1638.1 482.1,1620.5 "/>
<polygon class="st2" points="389.8,604.1 366.7,626.9 389.8,649.7 395,644.5 377.5,627 395.1,609.4 "/>
<polygon class="st2" points="423.9,604.1 447,626.9 423.9,649.7 418.7,644.5 436.1,627 418.5,609.4 "/>
<polygon class="st2" points="130.3,2560 107.2,2582.8 130.3,2605.6 135.5,2600.4 118,2583 135.6,2565.3 "/>
<polygon class="st2" points="164.4,2560 187.5,2582.8 164.4,2605.6 159.2,2600.4 176.6,2583 159,2565.3 "/>
</svg>
