<?xml version="1.0" encoding="utf-8"?>
<!-- Generator: Adobe Illustrator 22.1.0, SVG Export Plug-In . SVG Version: 6.00 Build 0)  -->
<svg version="1.1" id="a594ac37-6d44-4297-8862-1cbd9c01c0b7"
	 xmlns="http://www.w3.org/2000/svg" xmlns:xlink="http://www.w3.org/1999/xlink" x="0px" y="0px" viewBox="0 0 571.1 1789.4"
	 style="enable-background:new 0 0 571.1 1789.4;" xml:space="preserve">
<style type="text/css">
	.st0{fill:#F2F2F2;}
	.st1{fill:#3F3D56;}
</style>
<path class="st0" d="M2171.8,1367.8c-242.4-18.4-531.5-206.3-516.8-399.7s294.7-373.4,537.1-355c242.4,18.4,381.9,379.9,367.2,573.3
	C2544.6,1379.8,2414.2,1386.2,2171.8,1367.8z"/>
<title>code review</title>
<path class="st0" d="M-227.6,1160.4C-423.1,1145.5-656.3,994-644.4,838s237.7-301.2,433.2-286.3C-15.7,566.6,96.9,858.1,85,1014.1
	S-32.1,1175.3-227.6,1160.4z"/>
<path class="st0" d="M551.5,1558.1c-58.8-2.5-128.8-27.7-125.3-53.6c3.6-25.9,71.4-50.1,130.2-47.6s92.6,50.9,89,76.9
	C641.9,1559.8,610.3,1560.6,551.5,1558.1z"/>
<path class="st0" d="M605.8,676.9c-58.5,5.9-131.5-9-131.6-35.2c-0.2-26.2,63.6-59.7,122.1-65.6c58.5-5.9,98.9,37.2,99,63.4
	C695.5,665.7,664.3,671,605.8,676.9z"/>
<path class="st0" d="M558.6,1092.2c15.6,26.4,3.5,46-18.2,58.8c-21.6,12.8-44.6,13.9-60.2-12.5c-15.6-26.4,3.8-83.2,3.8-83.2
	S543,1065.8,558.6,1092.2z"/>
<polygon class="st1" points="560.9,1187.3 548.3,1164.9 548.9,1127.7 546.3,1161.4 540.6,1151.3 540.5,1124.8 539.1,1148.7 
	539.1,1148.7 528.9,1130.6 531.9,1107.6 527.3,1127.8 508.1,1094.8 532.5,1139 531.5,1137.2 508.8,1127.4 533.3,1140.7 544,1161.4 
	543.6,1160.9 518.5,1151.3 544.7,1162.8 546,1165.4 546,1165.4 546.1,1165.6 573.1,1218 577,1215.7 562.1,1189.2 564.7,1160.9 "/>
<path class="st0" d="M-3.7,1476c-58.5,5.9-131.5-9-131.6-35.2c-0.2-26.2,63.6-59.7,122.1-65.6s98.9,37.2,99,63.4
	C86,1464.7,54.8,1470.1-3.7,1476z"/>
<path class="st0" d="M884,533.1c-195.5-14.9-428.7-166.4-416.8-322.4S704.9-90.4,900.4-75.5s308.1,306.4,296.2,462.4
	S1079.5,548,884,533.1z"/>
<path class="st0" d="M65.3,366.3c-10.2,23.1-27.5,25.1-44.5,17.6c-16.9-7.5-27.1-21.6-16.9-44.7c10.2-23.1,53.9-38.9,53.9-38.9
	S75.5,343.2,65.3,366.3z"/>
<polygon class="st1" points="6.4,415 15.3,395.8 38.9,377.6 16.7,392.8 20.7,384.1 37.3,370.8 21.7,381.9 21.7,381.9 28.9,366.3 
	44.6,356.8 30,363.9 42.9,335.3 25.1,372.8 25.8,371.3 22.7,351.9 24.4,374.2 15.7,391.3 15.9,390.8 11.6,370 15.1,392.4 
	14.1,394.6 14,394.6 14,394.8 -8,438 -4.9,439.4 5.6,416.7 24.6,404.3 "/>
<path class="st0" d="M-21.1,122c-58.5,5.9-131.5-9-131.6-35.2S-89.1,27-30.6,21.1s98.9,37.2,99,63.4S37.4,116.1-21.1,122z"/>
<path class="st0" d="M-30.6,1757c-58.5,5.9-131.5-9-131.6-35.2c-0.2-26.2,63.6-59.7,122.1-65.6s98.9,37.2,99,63.4
	S27.9,1751.1-30.6,1757z"/>
</svg>
