<?xml version="1.0" encoding="utf-8"?>
<!-- Generator: Adobe Illustrator 22.1.0, SVG Export Plug-In . SVG Version: 6.00 Build 0)  -->
<svg version="1.1" id="a594ac37-6d44-4297-8862-1cbd9c01c0b7"
	 xmlns="http://www.w3.org/2000/svg" xmlns:xlink="http://www.w3.org/1999/xlink" x="0px" y="0px" viewBox="0 0 1920 720"
	 style="enable-background:new 0 0 1920 720;" xml:space="preserve">
<style type="text/css">
	.st0{fill:#F2F2F2;}
	.st1{fill:#3F3D56;}
</style>
<path class="st0" d="M2171.8,727.3C1929.4,708.9,1640.3,521,1655,327.7s294.7-373.4,537.1-355c242.4,18.4,381.9,379.9,367.2,573.3
	C2544.6,739.3,2414.2,745.8,2171.8,727.3z"/>
<title>code review</title>
<path class="st0" d="M-105.4,635.2C-300.9,620.4-534,468.9-522.2,312.9C-510.3,156.9-284.5,11.7-89,26.6s308.1,306.4,296.2,462.4
	C195.4,644.9,90.2,650.1-105.4,635.2z"/>
<path class="st0" d="M512.5,665.9c-58.8-2.5-128.8-27.7-125.3-53.6s71.4-50.1,130.2-47.6c58.8,2.5,92.6,50.9,89,76.9
	C602.9,667.5,571.3,668.3,512.5,665.9z"/>
<path class="st0" d="M1608.1,481.9c0,63.1-37.5,85.2-83.8,85.2s-83.8-22-83.8-85.2s83.8-143.4,83.8-143.4S1608.1,418.8,1608.1,481.9
	z"/>
<polygon class="st1" points="1522.8,652.7 1523.7,599.9 1559.4,534.5 1523.8,591.6 1524.2,567.9 1548.8,520.6 1524.3,561.6 
	1524.3,561.6 1525,518.9 1551.4,481.2 1525.1,512.1 1525.5,433.8 1522.8,537.5 1523,533.2 1496.2,492.2 1522.6,541.4 1520.1,589.2 
	1520,587.9 1489.1,544.7 1519.9,592.4 1519.6,598.3 1519.6,598.4 1519.6,598.9 1513.3,720 1521.7,720 1522.7,657.4 1553.5,609.9 "/>
</svg>
