<?xml version="1.0" encoding="utf-8"?>
<!-- Generator: Adobe Illustrator 22.1.0, SVG Export Plug-In . SVG Version: 6.00 Build 0)  -->
<svg version="1.1" id="a594ac37-6d44-4297-8862-1cbd9c01c0b7"
	 xmlns="http://www.w3.org/2000/svg" xmlns:xlink="http://www.w3.org/1999/xlink" x="0px" y="0px" viewBox="0 0 1920 720"
	 style="enable-background:new 0 0 1920 720;" xml:space="preserve">
<style type="text/css">
	.st0{fill:#FAEAE0;}
	.st1{fill:#3F3D56;}
	.st2{fill:#FFFFFF;}
	.st3{opacity:0.1;fill:#FF6347;}
	.st4{opacity:0.2;fill:#FF6347;}
</style>
<path class="st0" d="M2272.3,688.3c-242.4-18.4-531.5-206.3-516.8-399.7s294.7-373.4,537.1-355C2535-48,2674.5,313.5,2659.8,506.9
	S2514.7,706.8,2272.3,688.3z"/>
<title>code review</title>
<path class="st0" d="M-150.3,635.2C-345.9,620.4-579,468.9-567.2,312.9S-329.5,11.7-133.9,26.6S174.2,333,162.3,489
	S45.2,650.1-150.3,635.2z"/>
<path class="st0" d="M512.5,665.9c-58.8-2.5-128.8-27.7-125.3-53.6s71.4-50.1,130.2-47.6s92.6,50.9,89,76.9
	C602.9,667.5,571.3,668.3,512.5,665.9z"/>
<path class="st0" d="M1618,449c0,55.7-35,75.1-78.2,75.1s-78.2-19.4-78.2-75.1s78.2-126.5,78.2-126.5S1618,393.3,1618,449z"/>
<polygon class="st1" points="1538.5,599.7 1539.3,553.1 1572.6,495.4 1539.5,545.8 1539.8,524.8 1562.8,483.1 1539.9,519.3 
	1539.9,519.3 1540.6,481.6 1565.1,448.4 1540.7,475.7 1541.1,406.6 1538.5,498 1538.7,494.3 1513.7,458.1 1538.3,501.5 1536,543.6 
	1535.9,542.5 1507.1,504.4 1535.8,546.4 1535.5,551.7 1535.5,551.8 1535.5,552.2 1529.6,659 1537.5,659 1538.5,603.8 1567.1,561.9 
	"/>
<ellipse class="st1" cx="1507.1" cy="666.8" rx="84" ry="13.2"/>
<polygon class="st2" points="520.8,609 506,623.6 520.8,638.3 524.1,634.9 512.9,623.7 524.2,612.4 "/>
<polygon class="st2" points="542.7,609 557.5,623.6 542.7,638.3 539.3,634.9 550.5,623.7 539.2,612.4 "/>
<polygon class="st3" points="210.4,115.9 203,123.2 210.4,130.5 212.1,128.9 206.5,123.3 212.1,117.6 "/>
<polygon class="st3" points="221.3,115.9 228.8,123.2 221.3,130.5 219.7,128.9 225.3,123.3 219.6,117.6 "/>
<polygon class="st3" points="853.3,666.8 835,684.8 853.3,702.8 857.4,698.7 843.6,684.9 857.5,671 "/>
<polygon class="st3" points="880.2,666.8 898.4,684.8 880.2,702.8 876.1,698.7 889.8,684.9 875.9,671 "/>
<polygon class="st4" points="1588.5,96.4 1583.7,101.2 1588.5,105.9 1589.6,104.8 1585.9,101.2 1589.6,97.5 "/>
<polygon class="st4" points="1595.6,96.4 1600.3,101.2 1595.6,105.9 1594.5,104.8 1598.1,101.2 1594.4,97.5 "/>
<polygon class="st4" points="719.2,113.3 715.5,117 719.2,120.6 720,119.8 717.2,117 720,114.2 "/>
<polygon class="st4" points="724.6,113.3 728.3,117 724.6,120.6 723.8,119.8 726.6,117 723.8,114.2 "/>
<polygon class="st3" points="665.9,309.5 655.7,319.5 665.9,329.6 668.1,327.3 660.5,319.6 668.2,311.9 "/>
<polygon class="st3" points="680.8,309.5 691,319.5 680.8,329.6 678.6,327.3 686.2,319.6 678.5,311.9 "/>
<polygon class="st4" points="1216.5,375.5 1211.2,380.7 1216.5,385.9 1217.6,384.7 1213.7,380.7 1217.7,376.7 "/>
<polygon class="st4" points="1224.3,375.5 1229.5,380.7 1224.3,385.9 1223.1,384.7 1227.1,380.7 1223,376.7 "/>
<polygon class="st4" points="1024.7,208.8 1019.4,214 1024.7,219.2 1025.9,218 1021.9,214 1025.9,210 "/>
<polygon class="st4" points="1032.5,208.8 1037.7,214 1032.5,219.2 1031.3,218 1035.3,214 1031.2,210 "/>
<polygon class="st3" points="238.7,586.3 224.2,600.7 238.7,615 242,611.7 231,600.8 242.1,589.7 "/>
<polygon class="st3" points="260.1,586.3 274.7,600.7 260.1,615 256.9,611.7 267.9,600.8 256.8,589.7 "/>
<polygon class="st4" points="934.1,626.3 926.7,633.6 934.1,640.9 935.8,639.3 930.1,633.7 935.8,628 "/>
<polygon class="st4" points="945,626.3 952.4,633.6 945,640.9 943.4,639.3 949,633.7 943.3,628 "/>
<polygon class="st4" points="852.9,495.1 845.5,502.5 852.9,509.8 854.6,508.1 849,502.5 854.6,496.8 "/>
<polygon class="st4" points="863.9,495.1 871.3,502.5 863.9,509.8 862.2,508.1 867.8,502.5 862.1,496.8 "/>
<polygon class="st4" points="1225.6,179.7 1220.4,184.9 1225.6,190.1 1226.8,188.9 1222.8,184.9 1226.9,180.9 "/>
<polygon class="st4" points="1233.4,179.7 1238.7,184.9 1233.4,190.1 1232.2,188.9 1236.2,184.9 1232.2,180.9 "/>
<polygon class="st4" points="1259.8,628.8 1250.3,638.3 1259.8,647.7 1262,645.5 1254.7,638.3 1262,631 "/>
<polygon class="st4" points="1273.9,628.8 1283.5,638.3 1273.9,647.7 1271.8,645.5 1279,638.3 1271.7,631 "/>
<polygon class="st2" points="65.9,399.3 58.5,406.6 65.9,413.9 67.6,412.3 62,406.6 67.7,401 "/>
<polygon class="st2" points="76.9,399.3 84.3,406.6 76.9,413.9 75.2,412.3 80.8,406.6 75.2,401 "/>
<polygon class="st2" points="1501.6,465.6 1494.2,472.9 1501.6,480.3 1503.3,478.6 1497.7,473 1503.3,467.3 "/>
<polygon class="st2" points="1512.6,465.6 1520,472.9 1512.6,480.3 1510.9,478.6 1516.5,473 1510.9,467.3 "/>
</svg>
