<?xml version="1.0" encoding="utf-8"?>
<!-- Generator: Adobe Illustrator 22.1.0, SVG Export Plug-In . SVG Version: 6.00 Build 0)  -->
<svg version="1.1" id="a594ac37-6d44-4297-8862-1cbd9c01c0b7"
	 xmlns="http://www.w3.org/2000/svg" xmlns:xlink="http://www.w3.org/1999/xlink" x="0px" y="0px" viewBox="0 0 571.1 1789.4"
	 style="enable-background:new 0 0 571.1 1789.4;" xml:space="preserve">
<style type="text/css">
	.st0{fill:#F2F2F2;}
	.st1{fill:#FAEAE0;}
	.st2{fill:#3F3D56;}
</style>
<path class="st0" d="M2171.8,1367.8c-242.4-18.4-531.5-206.3-516.8-399.7s294.7-373.4,537.1-355c242.4,18.4,381.9,379.9,367.2,573.3
	S2414.2,1386.2,2171.8,1367.8z"/>
<title>code review</title>
<path class="st1" d="M-269.1,1377.9c-181.7-14.9-398.4-166.4-387.3-322.4c11.1-156,220.9-301.2,402.5-286.3
	c181.7,14.9,286.3,306.4,275.2,462.4S-87.4,1392.8-269.1,1377.9z"/>
<path class="st1" d="M633.5,1660.4c-58.8-2.5-128.8-27.7-125.3-53.6c3.6-25.9,71.4-50.1,130.2-47.6s92.6,50.9,89,76.9
	C723.9,1662.1,692.3,1662.9,633.5,1660.4z"/>
<path class="st1" d="M956.8,583.5C761.3,568.6,528.1,417.1,540,261.1S777.7-40,973.2-25.1s308.1,306.4,296.2,462.4
	S1152.3,598.4,956.8,583.5z"/>
<path class="st1" d="M69.2,465.7c-10.2,23.1-27.5,25.1-44.5,17.6c-16.9-7.5-27.1-21.6-16.9-44.7s53.9-38.9,53.9-38.9
	S79.4,442.6,69.2,465.7z"/>
<polygon class="st2" points="10.3,514.4 19.2,495.2 42.8,477 20.6,492.2 24.6,483.5 41.2,470.2 25.6,481.3 25.6,481.3 32.8,465.7 
	48.5,456.2 33.9,463.3 46.8,434.7 29,472.2 29.7,470.7 26.6,451.3 28.3,473.6 19.6,490.7 19.8,490.2 15.5,469.4 19,491.8 18,494 
	17.9,494 17.9,494.2 -4.1,537.4 -1,538.8 9.5,516.1 28.5,503.7 "/>
</svg>
