<?xml version="1.0" encoding="utf-8"?>
<!-- Generator: Adobe Illustrator 22.1.0, SVG Export Plug-In . SVG Version: 6.00 Build 0)  -->
<svg version="1.1" id="a594ac37-6d44-4297-8862-1cbd9c01c0b7"
	 xmlns="http://www.w3.org/2000/svg" xmlns:xlink="http://www.w3.org/1999/xlink" x="0px" y="0px" viewBox="0 0 1920 1773.4"
	 style="enable-background:new 0 0 1920 1773.4;" xml:space="preserve">
<style type="text/css">
	.st0{fill:#FAEAE0;}
	.st1{fill:#3F3D56;}
	.st2{fill:#FFFFFF;}
	.st3{opacity:0.1;fill:#FF6347;enable-background:new    ;}
	.st4{opacity:0.2;fill:#FF6347;enable-background:new    ;}
</style>
<path class="st0" d="M2272.3,1741.7c-242.4-18.4-531.5-206.3-516.8-399.7s294.7-373.4,537.1-355c242.4,18.4,381.9,379.9,367.2,573.3
	S2514.7,1760.2,2272.3,1741.7z"/>
<title>code review</title>
<path class="st0" d="M-150.3,1688.6c-195.6-14.8-428.7-166.3-416.9-322.3s237.7-301.2,433.3-286.3
	c195.6,14.9,308.1,306.4,296.2,462.4S45.2,1703.5-150.3,1688.6z"/>
<path class="st0" d="M512.5,1719.3c-58.8-2.5-128.8-27.7-125.3-53.6c3.5-25.9,71.4-50.1,130.2-47.6s92.6,50.9,89,76.9
	C602.9,1720.9,571.3,1721.7,512.5,1719.3z"/>
<path class="st0" d="M1618,1502.4c0,55.7-35,75.1-78.2,75.1s-78.2-19.4-78.2-75.1c0-55.7,78.2-126.5,78.2-126.5
	S1618,1446.7,1618,1502.4z"/>
<polygon class="st1" points="1538.5,1653.1 1539.3,1606.5 1572.6,1548.8 1539.5,1599.2 1539.8,1578.2 1562.8,1536.5 1539.9,1572.7 
	1539.9,1572.7 1540.6,1535 1565.1,1501.8 1540.7,1529.1 1541.1,1460 1538.5,1551.4 1538.7,1547.7 1513.7,1511.5 1538.3,1554.9 
	1536,1597 1535.9,1595.9 1507.1,1557.8 1535.8,1599.8 1535.5,1605.1 1535.5,1605.2 1535.5,1605.6 1529.6,1712.4 1537.5,1712.4 
	1538.5,1657.2 1567.1,1615.3 "/>
<ellipse class="st1" cx="1507.1" cy="1720.2" rx="84" ry="13.2"/>
<polygon class="st2" points="520.8,1662.4 506,1677 520.8,1691.7 524.1,1688.3 512.9,1677.1 524.2,1665.8 "/>
<polygon class="st2" points="542.7,1662.4 557.5,1677 542.7,1691.7 539.3,1688.3 550.5,1677.1 539.2,1665.8 "/>
<polygon class="st3" points="210.4,1169.3 203,1176.6 210.4,1183.9 212.1,1182.3 206.5,1176.7 212.1,1171 "/>
<polygon class="st3" points="221.3,1169.3 228.8,1176.6 221.3,1183.9 219.7,1182.3 225.3,1176.7 219.6,1171 "/>
<polygon class="st3" points="853.3,1720.2 835,1738.2 853.3,1756.2 857.4,1752.1 843.6,1738.3 857.5,1724.4 "/>
<polygon class="st3" points="880.2,1720.2 898.4,1738.2 880.2,1756.2 876.1,1752.1 889.8,1738.3 875.9,1724.4 "/>
<polygon class="st4" points="1588.5,1149.8 1583.7,1154.6 1588.5,1159.3 1589.6,1158.2 1585.9,1154.6 1589.6,1150.9 "/>
<polygon class="st4" points="1595.6,1149.8 1600.3,1154.6 1595.6,1159.3 1594.5,1158.2 1598.1,1154.6 1594.4,1150.9 "/>
<polygon class="st4" points="670,1147 665.5,1149.7 668.2,1154.1 669.1,1153.5 667.1,1150.1 670.5,1148 "/>
<polygon class="st4" points="675.2,1148.3 677.9,1152.8 673.4,1155.4 672.8,1154.4 676.2,1152.4 674.2,1149 "/>
<polygon class="st3" points="665.9,1362.9 655.7,1372.9 665.9,1383 668.1,1380.7 660.5,1373 668.2,1365.3 "/>
<polygon class="st3" points="680.8,1362.9 691,1372.9 680.8,1383 678.6,1380.7 686.2,1373 678.5,1365.3 "/>
<polygon class="st4" points="1238.1,1404 1234.4,1410.4 1240.8,1414.1 1241.6,1412.6 1236.8,1409.8 1239.6,1404.9 "/>
<polygon class="st4" points="1245.6,1402 1252,1405.6 1248.4,1412 1246.9,1411.2 1249.7,1406.2 1244.7,1403.5 "/>
<polygon class="st4" points="1024.7,1262.2 1019.4,1267.4 1024.7,1272.6 1025.9,1271.4 1021.9,1267.4 1025.9,1263.4 "/>
<polygon class="st4" points="1016.6,1291.8 1023,1295.5 1019.3,1301.9 1017.9,1301 1020.7,1296.1 1015.7,1293.3 "/>
<polygon class="st3" points="238.7,1639.7 224.2,1654.1 238.7,1668.4 242,1665.1 231,1654.2 242.1,1643.1 "/>
<polygon class="st3" points="260.1,1639.7 274.7,1654.1 260.1,1668.4 256.9,1665.1 267.9,1654.2 256.8,1643.1 "/>
<polygon class="st4" points="934.1,1679.7 926.7,1687 934.1,1694.3 935.8,1692.7 930.1,1687.1 935.8,1681.4 "/>
<polygon class="st4" points="945,1679.7 952.4,1687 945,1694.3 943.4,1692.7 949,1687.1 943.3,1681.4 "/>
<polygon class="st4" points="852.9,1548.5 845.5,1555.9 852.9,1563.2 854.6,1561.5 849,1555.9 854.6,1550.2 "/>
<polygon class="st4" points="863.9,1548.5 871.3,1555.9 863.9,1563.2 862.2,1561.5 867.8,1555.9 862.1,1550.2 "/>
<polygon class="st4" points="1195.1,1212.8 1191.5,1219.2 1197.9,1222.8 1198.7,1221.3 1193.8,1218.5 1196.7,1213.6 "/>
<polygon class="st4" points="1202.7,1210.7 1209.2,1214.3 1205.4,1220.7 1203.9,1219.9 1206.7,1215 1201.8,1212.2 "/>
<polygon class="st4" points="1259.8,1682.2 1250.3,1691.7 1259.8,1701.1 1262,1698.9 1254.7,1691.7 1262,1684.4 "/>
<polygon class="st4" points="1273.9,1682.2 1283.5,1691.7 1273.9,1701.1 1271.8,1698.9 1279,1691.7 1271.7,1684.4 "/>
<polygon class="st2" points="65.9,1452.7 58.5,1460 65.9,1467.3 67.6,1465.7 62,1460 67.7,1454.4 "/>
<polygon class="st2" points="76.9,1452.7 84.3,1460 76.9,1467.3 75.2,1465.7 80.8,1460 75.2,1454.4 "/>
<polygon class="st2" points="1501.6,1519 1494.2,1526.3 1501.6,1533.7 1503.3,1532 1497.7,1526.4 1503.3,1520.7 "/>
<polygon class="st2" points="1512.6,1519 1520,1526.3 1512.6,1533.7 1510.9,1532 1516.5,1526.4 1510.9,1520.7 "/>
<path class="st0" d="M2368,756c-242.4-18.4-531.5-206.3-516.8-399.7s294.7-373.4,537.1-355c242.4,18.4,381.9,379.9,367.2,573.3
	S2610.4,774.5,2368,756z"/>
<path class="st0" d="M3,459.7C-61.4,645-267.6,831.5-415.3,780.1s-230.3-306.9-165.8-492.2S-206,68.6-58.3,120S67.5,274.5,3,459.7z"
	/>
<polygon class="st3" points="137.4,746.3 130,753.6 137.4,760.9 139.1,759.3 133.5,753.7 139.1,748 "/>
<polygon class="st3" points="148.3,746.3 155.8,753.6 148.3,760.9 146.7,759.3 152.3,753.7 146.6,748 "/>
<polygon class="st4" points="702.8,719 698.3,721.7 701,726.1 702,725.5 699.9,722.1 703.3,720.1 "/>
<polygon class="st4" points="708,720.3 710.7,724.8 706.2,727.4 705.6,726.4 709,724.4 707,721 "/>
<polygon class="st3" points="603,896.2 590.7,903.4 598.1,915.6 600.8,914 595.3,904.6 604.7,899 "/>
<polygon class="st3" points="617.5,899.8 624.9,912 612.6,919.3 611,916.5 620.3,910.9 614.7,901.6 "/>
<polygon class="st4" points="1143.5,1005.9 1138.2,1011.1 1143.5,1016.3 1144.6,1015.1 1140.7,1011.1 1144.7,1007.1 "/>
<polygon class="st4" points="1151.3,1005.9 1156.5,1011.1 1151.3,1016.3 1150.1,1015.1 1154.1,1011.1 1150,1007.1 "/>
<polygon class="st4" points="975.6,886.4 969.2,890.1 973,896.5 974.5,895.6 971.6,890.7 976.5,887.8 "/>
<polygon class="st4" points="983.1,888.3 986.9,894.6 980.6,898.4 979.7,896.9 984.6,894 981.6,889.1 "/>
<polygon class="st4" points="738.9,1121.9 729.9,1127.3 735.3,1136.2 737.4,1134.9 733.3,1128.1 740.1,1124 "/>
<polygon class="st4" points="749.6,1124.6 754.9,1133.6 746,1138.8 744.7,1136.8 751.5,1132.7 747.4,1125.8 "/>
<polygon class="st4" points="1152.6,810.1 1147.4,815.3 1152.6,820.5 1153.8,819.3 1149.8,815.3 1153.9,811.3 "/>
<polygon class="st4" points="1160.4,810.1 1165.7,815.3 1160.4,820.5 1159.2,819.3 1163.2,815.3 1159.2,811.3 "/>
<polygon class="st3" points="168.1,85.4 160.7,92.7 168.1,100 169.8,98.4 164.2,92.8 169.8,87.1 "/>
<polygon class="st3" points="179,85.4 186.5,92.7 179,100 177.4,98.4 183,92.8 177.3,87.1 "/>
<polygon class="st4" points="676.9,82.8 673.2,86.5 676.9,90.1 677.7,89.3 674.9,86.5 677.7,83.7 "/>
<polygon class="st4" points="682.3,82.8 686,86.5 682.3,90.1 681.5,89.3 684.3,86.5 681.5,83.7 "/>
<polygon class="st3" points="585.6,344.6 582.1,358.5 596.1,361.8 596.8,358.7 586.3,356.1 588.8,345.5 "/>
<polygon class="st3" points="598.3,336.8 612.3,340 608.8,354 605.8,353.2 608.2,342.6 597.6,340.1 "/>
<polygon class="st4" points="1174.2,345 1168.8,350.2 1174.2,355.4 1175.3,354.2 1171.3,350.2 1175.3,346.2 "/>
<polygon class="st4" points="1182,345 1187.2,350.2 1182,355.4 1180.8,354.2 1184.8,350.2 1180.7,346.2 "/>
<polygon class="st4" points="982.3,178.3 977.1,183.5 982.3,188.7 983.6,187.5 979.6,183.5 983.6,179.5 "/>
<polygon class="st4" points="990.2,178.3 995.3,183.5 990.2,188.7 989,187.5 993,183.5 988.8,179.5 "/>
<polygon class="st4" points="842,405.3 839.6,415.5 849.7,417.9 850.2,415.5 842.5,413.7 844.3,405.9 "/>
<polygon class="st4" points="851.4,399.6 861.6,402 859.1,412.1 856.7,411.6 858.6,403.9 850.7,402 "/>
<polygon class="st4" points="1181,152.2 1179.6,159.4 1186.8,160.9 1187.1,159.2 1181.6,158.1 1182.8,152.5 "/>
<polygon class="st4" points="1187.5,147.9 1194.8,149.3 1193.3,156.6 1191.6,156.2 1192.7,150.7 1187.2,149.6 "/>
<polygon class="st3" points="1656.9,37.2 1647.7,32.4 1643,41.7 1645.1,42.8 1648.7,35.8 1655.8,39.4 "/>
<polygon class="st3" points="1660.3,47.6 1655.6,57 1646.4,52.1 1647.4,50 1654.4,53.7 1658.1,46.5 "/>
<polygon class="st4" points="1814.6,521 1809.9,518.6 1807.6,523.2 1808.6,523.7 1810.4,520.2 1814,522 "/>
<polygon class="st4" points="1816.2,526.1 1813.8,530.8 1809.3,528.4 1809.8,527.4 1813.3,529.2 1815.1,525.7 "/>
<polygon class="st3" points="1611.5,530.1 1598.8,523.4 1592.3,536.2 1595.2,537.6 1600.2,528 1609.9,533 "/>
<polygon class="st3" points="1616,544.3 1609.6,557 1596.9,550.4 1598.4,547.6 1608,552.5 1613,542.8 "/>
<polygon class="st4" points="1716.5,1074.6 1709.9,1071.1 1706.6,1077.7 1708.1,1078.4 1710.7,1073.5 1715.7,1076.1 "/>
<polygon class="st4" points="1718.9,1082 1715.5,1088.5 1709,1085.2 1709.8,1083.7 1714.8,1086.3 1717.3,1081.1 "/>
<polygon class="st4" points="1816.8,841.1 1810.2,837.6 1806.9,844.2 1808.4,845 1811,840 1816,842.6 "/>
<polygon class="st4" points="1819.2,848.5 1815.8,855 1809.2,851.7 1810,850.2 1815.1,852.8 1817.6,847.6 "/>
<polygon class="st4" points="1491.7,764.8 1482.4,760 1477.7,769.2 1479.9,770.3 1483.5,763.3 1490.6,766.9 "/>
<polygon class="st4" points="1495.1,775.2 1490.3,784.5 1481.1,779.7 1482.2,777.6 1489.2,781.2 1492.9,774 "/>
<polygon class="st4" points="1905.8,1023.5 1899.2,1020.2 1895.8,1026.7 1897.4,1027.5 1899.9,1022.4 1905,1025.1 "/>
<polygon class="st4" points="1908.1,1031 1904.8,1037.6 1898.2,1034.1 1899,1032.6 1904,1035.2 1906.6,1030.2 "/>
</svg>
