<?xml version="1.0" encoding="utf-8"?>
<!-- Generator: Adobe Illustrator 22.1.0, SVG Export Plug-In . SVG Version: 6.00 Build 0)  -->
<svg version="1.1" id="a594ac37-6d44-4297-8862-1cbd9c01c0b7"
	 xmlns="http://www.w3.org/2000/svg" xmlns:xlink="http://www.w3.org/1999/xlink" x="0px" y="0px" viewBox="0 0 1126.2 855"
	 style="enable-background:new 0 0 1126.2 855;" xml:space="preserve">
<style type="text/css">
	.st0{fill:#F2F2F2;}
	.st1{fill:#3F3D56;}
</style>
<title>code review</title>
<path class="st0" d="M-249.2,476.8C-491.6,458.4-780.7,270.5-766,77.2s294.7-373.4,537.1-355S153,102,138.3,295.4
	S-6.8,495.3-249.2,476.8z"/>
<path class="st0" d="M282,607.8c0,98.3-58.5,132.7-130.6,132.7S20.8,706.2,20.8,607.8s130.6-223.4,130.6-223.4S282,509.5,282,607.8z
	"/>
<polygon class="st1" points="149.1,740.7 150.2,677.1 193.2,598.3 150.3,667.1 150.8,638.5 180.5,581.5 150.9,630.9 150.9,630.9 
	151.8,579.4 183.5,534.1 151.9,571.4 152.4,477 149.1,601.9 149.4,596.8 117.1,547.3 148.9,606.6 145.9,664.1 145.8,662.6 
	108.6,610.6 145.7,668 145.3,675.2 145.2,675.3 145.3,675.9 137.6,821.7 147.8,821.7 149.1,746.3 186.1,689.1 "/>
<path class="st0" d="M894.8,244.2c-58.8-4.5-128.8-50-125.3-96.9c3.6-46.9,71.4-90.5,130.2-86.1c58.8,4.5,92.6,92.1,89,139
	S953.5,248.7,894.8,244.2z"/>
<path class="st0" d="M328.8,203.6C270,201.1,200,176,203.5,150S275,100,333.7,102.4c58.8,2.5,92.6,50.9,89,76.9
	C419.2,205.2,387.6,206.1,328.8,203.6z"/>
<path class="st0" d="M900.6,740.6c0,23.5-25.2,31.6-56.2,31.6s-56.2-8.2-56.2-31.6s56.2-53.3,56.2-53.3S900.6,717.2,900.6,740.6z"/>
<polygon class="st1" points="841.7,775.6 842.2,755.9 866.2,731.7 842.3,752.9 842.6,744 859.1,726.5 842.7,741.7 842.7,741.7 
	843.1,725.8 860.8,711.8 843.2,723.3 843.5,694.2 841.7,732.7 841.8,731.2 823.8,715.9 841.5,734.2 839.9,751.9 839.8,751.5 
	819.1,735.4 839.7,753.1 839.5,755.4 839.5,755.4 839.5,755.6 835.3,800.6 840.9,800.6 841.6,777.3 862.2,759.7 "/>
<path class="st0" d="M408.5,549.9c-14.4-4.3-31.7-48.6-30.8-94.1c0.9-45.5,17.6-88,32-83.6c14.4,4.3,22.8,89.5,21.9,135
	S423,554.2,408.5,549.9z"/>
<path class="st0" d="M562.6,780c-74-1.4-162.3-16-157.8-30.9s90-28.9,164-27.5S685.5,751,681,765.9
	C676.5,780.9,636.7,781.4,562.6,780z"/>
<path class="st0" d="M657.8,348.8c0,29.9-17.8,40.4-39.7,40.4c-21.9,0-39.7-10.4-39.7-40.4s39.7-68,39.7-68S657.8,318.9,657.8,348.8
	z"/>
<polygon class="st1" points="617.4,429.8 617.8,404.7 634.8,373.8 617.9,400.8 618.1,389.6 629.7,367.1 618.1,386.6 618.1,386.6 
	618.4,366.3 630.9,348.5 618.5,363.1 618.7,326 617.4,375.2 617.5,373.1 604.8,353.7 617.3,377 616.1,399.6 616.1,399 601.4,378.6 
	616.1,401.2 615.9,404 615.9,404 615.9,404.3 612.9,461.7 616.9,461.7 617.4,432 631.9,409.5 "/>
<path class="st0" d="M805.5,549.9c-14.4-4.3-31.7-48.6-30.8-94.1s17.6-88,32-83.6c14.4,4.3,22.8,89.5,21.9,135
	S820,554.2,805.5,549.9z"/>
<path class="st0" d="M1471.5,1073.8c-242.4-18.4-531.5-206.3-516.8-399.7c14.7-193.4,294.7-373.4,537.1-355S1873.8,699,1859,892.4
	C1844.3,1085.8,1713.9,1092.3,1471.5,1073.8z"/>
</svg>
