<?xml version="1.0" encoding="utf-8"?>
<!-- Generator: Adobe Illustrator 22.1.0, SVG Export Plug-In . SVG Version: 6.00 Build 0)  -->
<svg version="1.1" id="a594ac37-6d44-4297-8862-1cbd9c01c0b7"
	 xmlns="http://www.w3.org/2000/svg" xmlns:xlink="http://www.w3.org/1999/xlink" x="0px" y="0px" viewBox="0 0 1126.2 855"
	 style="enable-background:new 0 0 1126.2 855;" xml:space="preserve">
<style type="text/css">
	.st0{fill:#F2F2F2;}
	.st1{fill:#3F3D56;}
</style>
<title>code review</title>
<path class="st0" d="M656.7,791.8c-242.4-18.4-531.5-206.3-516.8-399.7C154.6,198.8,434.6,18.7,677,37.2s381.9,379.9,367.2,573.3
	C1029.5,803.8,899.1,810.3,656.7,791.8z"/>
<path class="st0" d="M190.2,654.5c0,63.8-37.9,86-84.7,86s-84.7-22.3-84.7-86s84.7-144.9,84.7-144.9S190.2,590.7,190.2,654.5z"/>
<polygon class="st1" points="102.4,730.7 103.3,677.4 139.4,611.3 103.4,669 103.8,645 128.7,597.2 103.9,638.6 103.9,638.6 
	104.6,595.5 131.3,557.5 104.7,588.7 105.2,509.6 102.4,614.3 102.7,610 75.6,568.6 102.2,618.3 99.7,666.5 99.6,665.2 68.4,621.6 
	99.5,669.7 99.2,675.8 99.2,675.9 99.2,676.4 92.8,798.7 101.3,798.7 102.4,735.5 133.4,687.5 "/>
</svg>
