<?xml version="1.0" encoding="utf-8"?>
<!-- Generator: Adobe Illustrator 22.1.0, SVG Export Plug-In . SVG Version: 6.00 Build 0)  -->
<svg version="1.1" id="a594ac37-6d44-4297-8862-1cbd9c01c0b7"
	 xmlns="http://www.w3.org/2000/svg" xmlns:xlink="http://www.w3.org/1999/xlink" x="0px" y="0px" viewBox="0 0 1920 720"
	 style="enable-background:new 0 0 1920 720;" xml:space="preserve">
<style type="text/css">
	.st0{fill:#FAEAE0;}
	.st1{fill:#3F3D56;}
</style>
<path class="st0" d="M2272.3,688.3c-242.4-18.4-531.5-206.3-516.8-399.7c14.7-193.4,294.7-373.4,537.1-355
	c242.4,18.4,381.9,379.9,367.2,573.3S2514.7,706.8,2272.3,688.3z"/>
<title>code review</title>
<path class="st0" d="M-150.3,635.2C-345.9,620.4-579,468.9-567.2,312.9S-329.5,11.7-133.9,26.6s308.1,306.4,296.2,462.4
	S45.2,650.1-150.3,635.2z"/>
<path class="st0" d="M512.5,665.9c-58.8-2.5-128.8-27.7-125.3-53.6s71.4-50.1,130.2-47.6c58.8,2.5,92.6,50.9,89,76.9
	C602.9,667.5,571.3,668.3,512.5,665.9z"/>
<path class="st0" d="M1618,449c0,55.7-35,75.1-78.2,75.1s-78.2-19.4-78.2-75.1s78.2-126.5,78.2-126.5S1618,393.3,1618,449z"/>
<polygon class="st1" points="1538.5,599.7 1539.3,553.1 1572.6,495.4 1539.5,545.8 1539.8,524.8 1562.8,483.1 1539.9,519.3 
	1539.9,519.3 1540.6,481.6 1565.1,448.4 1540.7,475.7 1541.1,406.6 1538.5,498 1538.7,494.3 1513.7,458.1 1538.3,501.5 1536,543.6 
	1535.9,542.5 1507.1,504.4 1535.8,546.4 1535.5,551.7 1535.5,551.8 1535.5,552.2 1529.6,659 1537.5,659 1538.5,603.8 1567.1,561.9 
	"/>
<ellipse class="st1" cx="1507.1" cy="666.8" rx="84" ry="13.2"/>
</svg>
