<svg xmlns="http://www.w3.org/2000/svg" viewBox="0 0 100.02 114.64"><defs><style>.cls-1{fill:#404f97;}.cls-2{fill:#403f77;}.cls-3{fill:#403f67;}.cls-4{fill:#403e99;}.cls-5{fill:#453e66;}.cls-6{fill:#403e57;}.cls-7{fill:#f3c6ab;}</style></defs><title>Asset 2</title><g id="Layer_2" data-name="Layer 2"><g id="Layer_1-2" data-name="Layer 1"><path class="cls-1" d="M72.37,90c-.09,1.63-1,2-6.91,6.95-9.36,5.59-18.74,11.14-28,16.84a4.21,4.21,0,0,1-4.79.17Q18,105.81,3.37,97.79a3.24,3.24,0,0,1-1.9-3.26C1.58,82.39.35,70.27.86,58.12a1.3,1.3,0,0,1,1-.24C11.5,62.36,20.51,68,29.86,73c1.3.7,2.56,1.48,3.91,2.1.32.14.64.31.95.48,11,5.7,21.48,12.18,32.54,17.69C67.57,93.43,72.2,89.69,72.37,90Z"/><path class="cls-2" d="M1.53,58.12H.86C.58,46.09.34,34.06,0,22a3.87,3.87,0,0,1,2.13-3.9c9.7-5.77,19.35-11.63,29-17.49A2.85,2.85,0,0,1,34.25.35L65,17.72c.17,2.12-1.69,2.51-2.94,3.27-8.24,5-16.54,10-24.79,14.94-1.36.82-2.93,1.42-3.63,3a4.59,4.59,0,0,1-.65.87C23.48,45.72,13.86,51.4,4.29,57.15A4.86,4.86,0,0,1,1.53,58.12Z"/><path class="cls-3" d="M66.33,18.06c.27,8,.74,16,.71,24,0,3.65-.1,6.7,4.57,7-3.81,1.08-3.33,4.52-4,7.32a1.48,1.48,0,0,1-.94.64c-2.07-.16-4,2.48-5.28,1-.65-1.94-3.16,5.68-3,4-3.26-1-1.2-11.52-4.46-11.93-7.39-3.07-14.23-7.17-21-11.33-.08-1.78,1.41-2.13,2.54-2.81q13.35-8,26.67-16A29.61,29.61,0,0,0,65,17.72Z"/><path class="cls-3" d="M66.41,56.64h.72c1.24,2.2,1.23,5.32,4.46,6-4.15.26-5,2.73-4.42,6.36,1.43,8.22.49,16.51.62,24.77-4.1-.09-6.93-3-10.25-4.76-7.84-4.16-15.5-8.63-23.24-13a1.84,1.84,0,0,1,.79-1.21c7.29-4.49,14.52-9.06,22.16-12.93C59,61.68,59.37,60,61.37,59,62.6,57.35,64.56,57.27,66.41,56.64Z"/><path class="cls-4" d="M1.53,58.12c10.16-6.66,20.52-13,31.26-18.69A4,4,0,0,1,34,42.82c-.32,9.55,1.23,19,.81,28.6-.08,1.6,0,3.24-1.19,4.56Z"/><path class="cls-5" d="M33.59,76q-.39-18.27-.8-36.55c0-.23.05-.46.09-.68,1.57-.12,2.76.73,4.07,1.45,5.56,3,11.17,6,16.77,9,3,2.66,5.8,5.38,4.83,10-.26,1.2-.21,2.46-1.13,3.43L34.3,76.07A4.31,4.31,0,0,1,33.59,76Z"/><path class="cls-5" d="M56.89,63c0-2.44-11.52-15.55-11.52-18,2.5.19,18,8.93,20,10.08C64.11,57.62,58.93,61.59,56.89,63Z"/><path class="cls-6" d="M66.33,18.06c10.2,5.63,20.38,11.3,30.61,16.87a3.88,3.88,0,0,1,2.4,3.69c.52,10.91.54,21.82.68,32.73,0,2.35-.53,3.76-2.72,5C87.45,82.13,78.13,89.11,68.37,95l-1-1c-1.27-1.45-.58-3.45-.62-5.15-.16-6.8.38-13.61-.66-20.38-.48-3.15.49-5.59,3.66-6.8a5.17,5.17,0,0,0,1-2,2.64,2.64,0,0,1,2.54-2.28,2.79,2.79,0,0,1,2.9,1.83c.34.73-3.92-6.95-2.78-7.25a2.58,2.58,0,0,0,2-2c.06-2.09,10.69,4.65,11,9,.07,1-12.68-1.1-14,0-4.62,3.86-2.46,16.13-5,11-2.8-1.07-1.55-23.07-1.37-26,.41-7-1.15-14-.74-21C65.36,21.28,65,19.49,66.33,18.06Z"/><path class="cls-7" d="M58.86,49.23H55.23v12a2.22,2.22,0,0,1-.46,1.53,1.69,1.69,0,0,1-2.4,0,2.21,2.21,0,0,1-.47-1.53v-12H48.26A1.8,1.8,0,0,1,47,48.85a1.29,1.29,0,0,1-.41-1,1.25,1.25,0,0,1,.43-1,1.87,1.87,0,0,1,1.25-.37h10.6a1.89,1.89,0,0,1,1.29.38,1.3,1.3,0,0,1,.42,1,1.24,1.24,0,0,1-.43,1A1.83,1.83,0,0,1,58.86,49.23Z"/><path class="cls-7" d="M75.11,48.22v4.72H82.3V48.22a2.24,2.24,0,0,1,.46-1.52,1.55,1.55,0,0,1,1.2-.5,1.58,1.58,0,0,1,1.21.5,2.11,2.11,0,0,1,.47,1.52v13a2.21,2.21,0,0,1-.47,1.53,1.58,1.58,0,0,1-1.21.5,1.53,1.53,0,0,1-1.21-.51,2.23,2.23,0,0,1-.45-1.52V55.65H75.11v5.54a2.16,2.16,0,0,1-.48,1.53,1.55,1.55,0,0,1-1.21.5,1.52,1.52,0,0,1-1.2-.51,2.23,2.23,0,0,1-.45-1.52v-13a2.3,2.3,0,0,1,.44-1.52,1.55,1.55,0,0,1,1.21-.5,1.61,1.61,0,0,1,1.22.5A2.16,2.16,0,0,1,75.11,48.22Z"/></g></g></svg>